HIERARCHY
ROOT Root
{
	OFFSET 0.00000 0.00000 0.00000
	CHANNELS 6 Xposition Yposition Zposition Zrotation Xrotation Yrotation
	JOINT Hips
	{
		OFFSET 0 0 0	
		CHANNELS 3 Zrotation Xrotation Yrotation
		JOINT Spine
		{
			OFFSET 0 4 0	
			CHANNELS 3 Zrotation Xrotation Yrotation
			JOINT Spine1
			{
				OFFSET 0 19.4 0	
				CHANNELS 3 Zrotation Xrotation Yrotation
				JOINT Spine2
				{
					OFFSET 0 16.6 0	
					CHANNELS 3 Zrotation Xrotation Yrotation
					JOINT LeftCollar
					{
						OFFSET 0 10 0	
						CHANNELS 3 Zrotation Xrotation Yrotation
						JOINT LeftArm
						{
							OFFSET 15.6 -2 3	
							CHANNELS 3 Zrotation Xrotation Yrotation
							JOINT LeftForeArm
							{
								OFFSET 3.5 -27 -1	
								CHANNELS 3 Zrotation Xrotation Yrotation
								JOINT LeftHand
								{
									OFFSET 1 -27 1	
									CHANNELS 3 Zrotation Xrotation Yrotation
									End Site
									{
										OFFSET 0 -15 0
									}
								}
							}
						}
					}
					JOINT RightCollar
					{
						OFFSET 0 10 0	
						CHANNELS 3 Zrotation Xrotation Yrotation
						JOINT RightArm
						{
							OFFSET -15.6 -2 3	
							CHANNELS 3 Zrotation Xrotation Yrotation
							JOINT RightForeArm
							{
								OFFSET -3.5 -27 -1	
								CHANNELS 3 Zrotation Xrotation Yrotation
								JOINT RightHand
								{
									OFFSET -1 -27 1	
									CHANNELS 3 Zrotation Xrotation Yrotation
									End Site
									{
										OFFSET 0 -15 0
									}
								}
							}
						}
					}
					JOINT Neck
					{
						OFFSET 0 10 0	
						CHANNELS 3 Zrotation Xrotation Yrotation
						JOINT Head
						{
							OFFSET 0 12.7 3	
							CHANNELS 3 Zrotation Xrotation Yrotation
							End Site
							{
								OFFSET 0 12.7 3
							}
						}
					}
				}
			}
		}
	}
	JOINT LeftHip
	{
		OFFSET 0 0 0	
		CHANNELS 3 Zrotation Xrotation Yrotation
		JOINT LeftUpLeg
		{
			OFFSET 8.8 -6 0	
			CHANNELS 3 Zrotation Xrotation Yrotation
			JOINT LeftLeg
			{
				OFFSET 0 -39 2	
				CHANNELS 3 Zrotation Xrotation Yrotation
				JOINT LeftFoot
				{
					OFFSET 0 -43 -2	
					CHANNELS 3 Zrotation Xrotation Yrotation
					JOINT LeftFootFront
					{
						OFFSET 0 -7 8.5	
						CHANNELS 3 Zrotation Xrotation Yrotation
						End Site
						{
							OFFSET 0 -0.5 9
						}
					}
				}
				JOINT LeftHeel
				{
					OFFSET 0 -43 -2	
					CHANNELS 3 Zrotation Xrotation Yrotation
					End Site
					{
						OFFSET 0 -7.5 -5
					}
				}
			}
		}
	}
	JOINT RightHip
	{
		OFFSET 0 0 0	
		CHANNELS 3 Zrotation Xrotation Yrotation
		JOINT RightUpLeg
		{
			OFFSET -8.8 -6 0	
			CHANNELS 3 Zrotation Xrotation Yrotation
			JOINT RightLeg
			{
				OFFSET 0 -39 2	
				CHANNELS 3 Zrotation Xrotation Yrotation
				JOINT RightFoot
				{
					OFFSET 0 -43 -2	
					CHANNELS 3 Zrotation Xrotation Yrotation
					JOINT RightFootFront
					{
						OFFSET 0 -7 8.5	
						CHANNELS 3 Zrotation Xrotation Yrotation
						End Site
						{
							OFFSET 0 -0.5 9
						}
					}
				}
				JOINT RightHeel
				{
					OFFSET 0 -43 -2	
					CHANNELS 3 Zrotation Xrotation Yrotation
					End Site
					{
						OFFSET 0 -7.5 -5
					}
				}
			}
		}
	}
}
MOTION
Frames: 22
Frame Time: 0.002
0 96.613 0 -0 0 -0 -1.0232 0.77 -0.092387 -0.93057 0.15963 -0.64413 -0.93057 0.15963 -0.64413 -0.7818 0.13339 -0.54124 -0 0 -0 2.0071 -0.011299 3.2732 -2.692 -4.0216 0.69269 -0 0 -0 -0 0 -0 -1.012 1.1379 -5.0801 11.494 -6.5182 -3.6881 -0 0 -0 2.8419 -0.93211 -2.5268 2.8419 -0.93211 -2.5268 -1.0232 0.77 -0.092387 2.4854 -0.6795 -2.3017 0.28662 3.822 -4.9215 -0 0 -0 -0 0 -0 -0 0 -0 -1.0232 0.77 -0.092387 0.77476 -1.4492 2.8671 0.18565 0.92261 3.6382 -0 0 -0 -0 0 -0 -0 0 -0 
0 96.613 0 -0 0 -0 -1.0235 0.76975 -0.092544 -0.93065 0.16002 -0.64397 -0.93065 0.16002 -0.64397 -0.78187 0.13372 -0.54111 -0 0 -0 2.0074 -0.011787 3.2728 -2.6919 -4.0208 0.69307 -0 0 -0 -0 0 -0 -1.0123 1.1372 -5.0804 11.494 -6.5182 -3.6877 -0 0 -0 2.8421 -0.93239 -2.5271 2.8421 -0.93239 -2.5271 -1.0235 0.76975 -0.092544 2.4857 -0.67925 -2.3018 0.28643 3.8216 -4.9213 -0 0 -0 -0 0 -0 -0 0 -0 -1.0235 0.76975 -0.092544 0.77501 -1.4488 2.8675 0.18545 0.92221 3.6383 -0 0 -0 -0 0 -0 -0 0 -0 
0 96.613 0 -0 0 -0 -1.0237 0.76951 -0.092714 -0.93074 0.16043 -0.6438 -0.93074 0.16043 -0.6438 -0.78195 0.13405 -0.54097 -0 0 -0 2.0078 -0.012306 3.2724 -2.6918 -4.0201 0.69349 -0 0 -0 -0 0 -0 -1.0127 1.1363 -5.0808 11.495 -6.5181 -3.6872 -0 0 -0 2.8423 -0.93269 -2.5275 2.8423 -0.93269 -2.5275 -1.0237 0.76951 -0.092714 2.486 -0.679 -2.3019 0.28623 3.8212 -4.921 -0 0 -0 -0 0 -0 -0 0 -0 -1.0237 0.76951 -0.092714 0.77531 -1.4484 2.8679 0.18522 0.9218 3.6383 -0 0 -0 -0 0 -0 -0 0 -0 
0 96.613 0 -0 0 -0 -1.0239 0.76922 -0.092893 -0.93085 0.16087 -0.64364 -0.93085 0.16087 -0.64364 -0.78203 0.13443 -0.54083 -0 0 -0 2.0082 -0.012865 3.272 -2.6917 -4.0192 0.69394 -0 0 -0 -0 0 -0 -1.013 1.1355 -5.0812 11.495 -6.5181 -3.6867 -0 0 -0 2.8425 -0.93301 -2.5278 2.8425 -0.93301 -2.5278 -1.0239 0.76922 -0.092893 2.4864 -0.6787 -2.302 0.28603 3.8207 -4.9208 -0 0 -0 -0 0 -0 -0 0 -0 -1.0239 0.76922 -0.092893 0.77558 -1.448 2.8684 0.185 0.92139 3.6384 -0 0 -0 -0 0 -0 -0 0 -0 
0 96.613 0 -0 0 -0 -1.0242 0.76893 -0.093076 -0.93094 0.16133 -0.64345 -0.93094 0.16133 -0.64345 -0.78212 0.13482 -0.54068 -0 0 -0 2.0086 -0.013439 3.2715 -2.6916 -4.0183 0.69442 -0 0 -0 -0 0 -0 -1.0134 1.1346 -5.0817 11.496 -6.5181 -3.6861 -0 0 -0 2.8427 -0.93335 -2.5282 2.8427 -0.93335 -2.5282 -1.0242 0.76893 -0.093076 2.4867 -0.6784 -2.3021 0.28583 3.8203 -4.9206 -0 0 -0 -0 0 -0 -0 0 -0 -1.0242 0.76893 -0.093076 0.77589 -1.4475 2.8689 0.18478 0.92092 3.6385 -0 0 -0 -0 0 -0 -0 0 -0 
0 96.613 0 -0 0 -0 -1.0245 0.76863 -0.093279 -0.93105 0.16182 -0.64325 -0.93105 0.16182 -0.64325 -0.78221 0.13523 -0.54051 -0 0 -0 2.0091 -0.014068 3.2709 -2.6915 -4.0174 0.69495 -0 0 -0 -0 0 -0 -1.0138 1.1336 -5.0822 11.496 -6.518 -3.6855 -0 0 -0 2.843 -0.9337 -2.5286 2.843 -0.9337 -2.5286 -1.0245 0.76863 -0.093279 2.4871 -0.67806 -2.3022 0.2856 3.8197 -4.9203 -0 0 -0 -0 0 -0 -0 0 -0 -1.0245 0.76863 -0.093279 0.77622 -1.447 2.8694 0.18452 0.92043 3.6385 -0 0 -0 -0 0 -0 -0 0 -0 
0 96.613 0 -0 0 -0 -1.0248 0.7683 -0.093483 -0.93116 0.16235 -0.64305 -0.93116 0.16235 -0.64305 -0.7823 0.13567 -0.54034 -0 0 -0 2.0095 -0.014718 3.2704 -2.6914 -4.0164 0.69552 -0 0 -0 -0 0 -0 -1.0142 1.1326 -5.0827 11.496 -6.518 -3.6849 -0 0 -0 2.8432 -0.93407 -2.529 2.8432 -0.93407 -2.529 -1.0248 0.7683 -0.093483 2.4875 -0.67771 -2.3023 0.28537 3.8192 -4.9201 -0 0 -0 -0 0 -0 -0 0 -0 -1.0248 0.7683 -0.093483 0.77654 -1.4465 2.8699 0.18428 0.91991 3.6386 -0 0 -0 -0 0 -0 -0 0 -0 
0 96.613 0 -0 0 -0 -1.0251 0.76795 -0.093697 -0.93127 0.16291 -0.64283 -0.93127 0.16291 -0.64283 -0.78239 0.13614 -0.54016 -0 0 -0 2.01 -0.015434 3.2698 -2.6912 -4.0153 0.69618 -0 0 -0 -0 0 -0 -1.0146 1.1315 -5.0832 11.497 -6.518 -3.6842 -0 0 -0 2.8435 -0.9345 -2.5295 2.8435 -0.9345 -2.5295 -1.0251 0.76795 -0.093697 2.4879 -0.67736 -2.3024 0.28511 3.8186 -4.9198 -0 0 -0 -0 0 -0 -0 0 -0 -1.0251 0.76795 -0.093697 0.7769 -1.446 2.8705 0.18403 0.91941 3.6387 -0 0 -0 -0 0 -0 -0 0 -0 
0 96.613 0 -0 0 -0 -1.0254 0.76761 -0.093927 -0.93138 0.16349 -0.6426 -0.93138 0.16349 -0.6426 -0.78248 0.13663 -0.53996 -0 0 -0 2.0105 -0.016166 3.2692 -2.6911 -4.0143 0.69685 -0 0 -0 -0 0 -0 -1.015 1.1304 -5.0838 11.497 -6.518 -3.6835 -0 0 -0 2.8437 -0.93492 -2.5299 2.8437 -0.93492 -2.5299 -1.0254 0.76761 -0.093927 2.4883 -0.67699 -2.3025 0.28487 3.818 -4.9195 -0 0 -0 -0 0 -0 -0 0 -0 -1.0254 0.76761 -0.093927 0.77729 -1.4455 2.871 0.18377 0.91884 3.6389 -0 0 -0 -0 0 -0 -0 0 -0 
0 96.613 0 -0 0 -0 -1.0258 0.76724 -0.094151 -0.9315 0.16411 -0.64236 -0.9315 0.16411 -0.64236 -0.78258 0.13715 -0.53976 -0 0 -0 2.011 -0.016966 3.2685 -2.691 -4.0131 0.69756 -0 0 -0 -0 0 -0 -1.0154 1.1291 -5.0845 11.498 -6.518 -3.6827 -0 0 -0 2.844 -0.93538 -2.5304 2.844 -0.93538 -2.5304 -1.0258 0.76724 -0.094151 2.4888 -0.67655 -2.3027 0.28462 3.8174 -4.9192 -0 0 -0 -0 0 -0 -0 0 -0 -1.0258 0.76724 -0.094151 0.77767 -1.4449 2.8716 0.18349 0.91826 3.639 -0 0 -0 -0 0 -0 -0 0 -0 
0 96.613 0 -0 0 -0 -1.0261 0.76684 -0.094404 -0.93162 0.16478 -0.64209 -0.93162 0.16478 -0.64209 -0.78269 0.13771 -0.53953 -0 0 -0 2.0116 -0.01782 3.2678 -2.6909 -4.0119 0.69833 -0 0 -0 -0 0 -0 -1.0158 1.1278 -5.0852 11.498 -6.518 -3.6819 -0 0 -0 2.8443 -0.93587 -2.5309 2.8443 -0.93587 -2.5309 -1.0261 0.76684 -0.094404 2.4893 -0.67613 -2.3028 0.28435 3.8167 -4.9189 -0 0 -0 -0 0 -0 -0 0 -0 -1.0261 0.76684 -0.094404 0.77807 -1.4443 2.8722 0.18323 0.91763 3.6392 -0 0 -0 -0 0 -0 -0 0 -0 
0 96.613 0 -0 0 -0 -1.0265 0.76643 -0.094687 -0.93174 0.16547 -0.64179 -0.93174 0.16547 -0.64179 -0.78278 0.1383 -0.53929 -0 0 -0 2.0121 -0.018715 3.267 -2.6908 -4.0106 0.69919 -0 0 -0 -0 0 -0 -1.0163 1.1265 -5.086 11.499 -6.518 -3.681 -0 0 -0 2.8446 -0.9364 -2.5314 2.8446 -0.9364 -2.5314 -1.0265 0.76643 -0.094687 2.4898 -0.67567 -2.3028 0.28407 3.816 -4.9186 -0 0 -0 -0 0 -0 -0 0 -0 -1.0265 0.76643 -0.094687 0.77851 -1.4437 2.8729 0.18295 0.91703 3.6394 -0 0 -0 -0 0 -0 -0 0 -0 
0 96.613 0 -0 0 -0 -1.0269 0.766 -0.094939 -0.93186 0.16619 -0.64151 -0.93186 0.16619 -0.64151 -0.78289 0.1389 -0.53905 -0 0 -0 2.0127 -0.019639 3.2662 -2.6907 -4.0094 0.70008 -0 0 -0 -0 0 -0 -1.0167 1.1251 -5.0868 11.499 -6.518 -3.6801 -0 0 -0 2.8449 -0.93694 -2.5319 2.8449 -0.93694 -2.5319 -1.0269 0.766 -0.094939 2.4903 -0.67519 -2.303 0.28378 3.8153 -4.9183 -0 0 -0 -0 0 -0 -0 0 -0 -1.0269 0.766 -0.094939 0.77895 -1.4431 2.8735 0.18266 0.9164 3.6396 -0 0 -0 -0 0 -0 -0 0 -0 
0 96.613 0 -0 0 -0 -1.0273 0.76555 -0.095227 -0.93199 0.16697 -0.6412 -0.93199 0.16697 -0.6412 -0.783 0.13955 -0.53879 -0 0 -0 2.0134 -0.020651 3.2654 -2.6906 -4.008 0.70102 -0 0 -0 -0 0 -0 -1.0171 1.1236 -5.0877 11.499 -6.518 -3.6791 -0 0 -0 2.8452 -0.9375 -2.5324 2.8452 -0.9375 -2.5324 -1.0273 0.76555 -0.095227 2.4909 -0.67467 -2.303 0.28348 3.8145 -4.9179 -0 0 -0 -0 0 -0 -0 0 -0 -1.0273 0.76555 -0.095227 0.77939 -1.4424 2.8742 0.18238 0.91572 3.6398 -0 0 -0 -0 0 -0 -0 0 -0 
0 96.613 0 -0 0 -0 -1.0278 0.76512 -0.095504 -0.93212 0.16775 -0.64089 -0.93212 0.16775 -0.64089 -0.7831 0.14021 -0.53853 -0 0 -0 2.014 -0.021673 3.2645 -2.6906 -4.0066 0.70203 -0 0 -0 -0 0 -0 -1.0175 1.1221 -5.0886 11.5 -6.5181 -3.6782 -0 0 -0 2.8455 -0.9381 -2.533 2.8455 -0.9381 -2.533 -1.0278 0.76512 -0.095504 2.4915 -0.67415 -2.3031 0.28317 3.8137 -4.9176 -0 0 -0 -0 0 -0 -0 0 -0 -1.0278 0.76512 -0.095504 0.77988 -1.4418 2.8748 0.18207 0.91504 3.6401 -0 0 -0 -0 0 -0 -0 0 -0 
0 96.613 0 -0 0 -0 -1.0283 0.76462 -0.095806 -0.93224 0.16859 -0.64055 -0.93224 0.16859 -0.64055 -0.78321 0.14091 -0.53825 -0 0 -0 2.0147 -0.02278 3.2636 -2.6905 -4.0051 0.70309 -0 0 -0 -0 0 -0 -1.0179 1.1206 -5.0895 11.5 -6.5181 -3.6771 -0 0 -0 2.8459 -0.93874 -2.5336 2.8459 -0.93874 -2.5336 -1.0283 0.76462 -0.095806 2.4921 -0.67358 -2.3032 0.28286 3.8129 -4.9173 -0 0 -0 -0 0 -0 -0 0 -0 -1.0283 0.76462 -0.095806 0.78038 -1.4411 2.8755 0.18179 0.91437 3.6404 -0 0 -0 -0 0 -0 -0 0 -0 
0 96.613 0 -0 0 -0 -1.0287 0.76413 -0.096111 -0.93238 0.16946 -0.6402 -0.93238 0.16946 -0.6402 -0.78332 0.14164 -0.53795 -0 0 -0 2.0154 -0.023947 3.2626 -2.6905 -4.0036 0.70419 -0 0 -0 -0 0 -0 -1.0183 1.1189 -5.0906 11.5 -6.5182 -3.676 -0 0 -0 2.8462 -0.9394 -2.5341 2.8462 -0.9394 -2.5341 -1.0287 0.76413 -0.096111 2.4927 -0.67299 -2.3033 0.28253 3.812 -4.9169 -0 0 -0 -0 0 -0 -0 0 -0 -1.0287 0.76413 -0.096111 0.78086 -1.4404 2.8762 0.1815 0.91368 3.6407 -0 0 -0 -0 0 -0 -0 0 -0 
0 96.613 0 -0 0 -0 -1.0292 0.76361 -0.096424 -0.93251 0.17036 -0.63983 -0.93251 0.17036 -0.63983 -0.78344 0.14241 -0.53765 -0 0 -0 2.0161 -0.025149 3.2616 -2.6904 -4.0021 0.70535 -0 0 -0 -0 0 -0 -1.0186 1.1172 -5.0917 11.501 -6.5183 -3.6749 -0 0 -0 2.8466 -0.9401 -2.5347 2.8466 -0.9401 -2.5347 -1.0292 0.76361 -0.096424 2.4933 -0.67238 -2.3033 0.28219 3.8111 -4.9166 -0 0 -0 -0 0 -0 -0 0 -0 -1.0292 0.76361 -0.096424 0.78138 -1.4396 2.8769 0.1812 0.91296 3.641 -0 0 -0 -0 0 -0 -0 0 -0 
0 96.613 0 -0 0 -0 -1.0297 0.76308 -0.096749 -0.93264 0.17129 -0.63945 -0.93264 0.17129 -0.63945 -0.78355 0.14319 -0.53733 -0 0 -0 2.0168 -0.026405 3.2606 -2.6903 -4.0005 0.70657 -0 0 -0 -0 0 -0 -1.019 1.1155 -5.0928 11.501 -6.5184 -3.6738 -0 0 -0 2.8469 -0.94082 -2.5353 2.8469 -0.94082 -2.5353 -1.0297 0.76308 -0.096749 2.494 -0.67171 -2.3033 0.2819 3.8102 -4.9163 -0 0 -0 -0 0 -0 -0 0 -0 -1.0297 0.76308 -0.096749 0.78192 -1.4389 2.8776 0.18091 0.91224 3.6414 -0 0 -0 -0 0 -0 -0 0 -0 
0 96.613 0 -0 0 -0 -1.0302 0.76255 -0.09706 -0.93278 0.17224 -0.63908 -0.93278 0.17224 -0.63908 -0.78367 0.14399 -0.53701 -0 0 -0 2.0176 -0.0277 3.2595 -2.6903 -3.9989 0.70779 -0 0 -0 -0 0 -0 -1.0193 1.1137 -5.094 11.501 -6.5186 -3.6726 -0 0 -0 2.8473 -0.94155 -2.5359 2.8473 -0.94155 -2.5359 -1.0302 0.76255 -0.09706 2.4947 -0.67107 -2.3034 0.28157 3.8092 -4.9159 -0 0 -0 -0 0 -0 -0 0 -0 -1.0302 0.76255 -0.09706 0.78245 -1.4382 2.8782 0.18061 0.91152 3.6418 -0 0 -0 -0 0 -0 -0 0 -0 
0 96.613 0 -0 0 -0 -1.0308 0.762 -0.097369 -0.93293 0.17323 -0.63868 -0.93293 0.17323 -0.63868 -0.78379 0.14481 -0.53668 -0 0 -0 2.0184 -0.02906 3.2585 -2.6903 -3.9972 0.70905 -0 0 -0 -0 0 -0 -1.0195 1.1119 -5.0952 11.501 -6.5188 -3.6714 -0 0 -0 2.8477 -0.94231 -2.5365 2.8477 -0.94231 -2.5365 -1.0308 0.762 -0.097369 2.4954 -0.67036 -2.3034 0.28124 3.8082 -4.9156 -0 0 -0 -0 0 -0 -0 0 -0 -1.0308 0.762 -0.097369 0.78298 -1.4374 2.8789 0.18031 0.91082 3.6422 -0 0 -0 -0 0 -0 -0 0 -0 
0 96.613 0 -0 0 -0 -1.0313 0.76144 -0.097705 -0.93306 0.17424 -0.63828 -0.93306 0.17424 -0.63828 -0.7839 0.14566 -0.53634 -0 0 -0 2.0192 -0.030474 3.2574 -2.6903 -3.9955 0.71037 -0 0 -0 -0 0 -0 -1.0198 1.1101 -5.0965 11.502 -6.5189 -3.6702 -0 0 -0 2.8481 -0.9431 -2.5371 2.8481 -0.9431 -2.5371 -1.0313 0.76144 -0.097705 2.4961 -0.66966 -2.3034 0.28091 3.8072 -4.9153 -0 0 -0 -0 0 -0 -0 0 -0 -1.0313 0.76144 -0.097705 0.78356 -1.4367 2.8796 0.18003 0.91009 3.6426 -0 0 -0 -0 0 -0 -0 0 -0 
